<?xml version="1.0" encoding="utf-8"?>
<!-- Generator: Adobe Illustrator 16.0.0, SVG Export Plug-In . SVG Version: 6.00 Build 0)  -->
<!DOCTYPE svg PUBLIC "-//W3C//DTD SVG 1.1//EN" "http://www.w3.org/Graphics/SVG/1.1/DTD/svg11.dtd">
<svg version="1.1" id="Layer_1" xmlns="http://www.w3.org/2000/svg" xmlns:xlink="http://www.w3.org/1999/xlink" x="0px" y="0px"
	 width="566.929px" height="153.07px" viewBox="0 0 566.929 153.07" enable-background="new 0 0 566.929 153.07"
	 xml:space="preserve">
<rect x="0.464" y="-1" width="566" height="154.07"/>
<path fill="#FFFFFF" d="M13.397-0.071h4.799l7.256,33.893h-4.799l-1.441-7.257l-6.832-0.047l-1.44,7.304H6.141L13.397-0.071z
	 M15.785,9.617l-2.434,12.151h4.891L15.833,9.617H15.785z"/>
<polygon fill="#FFFFFF" points="27.864,33.821 27.864,-0.071 32.708,-0.071 32.708,28.976 42.398,28.976 42.398,33.821 "/>
<path fill="#FFFFFF" d="M50.598-0.071h4.799l7.256,33.893h-4.798l-1.441-7.257l-6.832-0.047l-1.441,7.304h-4.798L50.598-0.071z
	 M52.985,9.617l-2.432,12.151h4.889L53.034,9.617H52.985z"/>
<g>
	<defs>
		<rect id="SVGID_1_" x="0.464" y="-1" width="566" height="154.07"/>
	</defs>
	<clipPath id="SVGID_2_">
		<use xlink:href="#SVGID_1_"  overflow="visible"/>
	</clipPath>
	<path clip-path="url(#SVGID_2_)" fill="#FFFFFF" d="M68.938,24.13v2.435c0,0.679,0.237,1.25,0.709,1.715
		c0.474,0.463,1.047,0.696,1.727,0.696c0.676,0,1.247-0.233,1.714-0.696c0.465-0.465,0.698-1.036,0.698-1.715V21.72
		c0-0.677-0.233-1.248-0.698-1.713c-0.467-0.464-1.038-0.697-1.714-0.697c-2.176-0.017-3.986-0.827-5.436-2.436
		c-1.228-1.386-1.844-3.002-1.844-4.845V7.208c0-2.002,0.712-3.714,2.139-5.141c1.425-1.426,3.139-2.139,5.142-2.139
		c2,0,3.71,0.713,5.13,2.139c1.417,1.427,2.126,3.139,2.126,5.141v2.409h-0.449h-4.395V7.208c0-0.676-0.233-1.253-0.698-1.725
		c-0.467-0.474-1.038-0.711-1.714-0.711c-0.679,0-1.253,0.237-1.727,0.711c-0.473,0.472-0.709,1.049-0.709,1.725v4.821
		c0,0.679,0.237,1.253,0.709,1.725c0.474,0.473,1.047,0.71,1.727,0.71c2.156,0,3.961,0.804,5.412,2.41
		c1.229,1.388,1.844,3.001,1.844,4.846v4.845c0,2.002-0.709,3.712-2.126,5.13c-1.419,1.418-3.13,2.127-5.13,2.127
		c-2.002,0-3.716-0.709-5.142-2.127c-1.426-1.418-2.139-3.128-2.139-5.13V24.13H68.938z"/>
	<polygon clip-path="url(#SVGID_2_)" fill="#FFFFFF" points="82.295,-0.071 87.141,-0.071 87.141,12.029 91.984,-0.071 
		96.829,-0.071 91.25,13.872 96.829,33.821 91.984,33.821 88.345,21.129 87.141,24.13 87.141,33.821 82.295,33.821 	"/>
	<path clip-path="url(#SVGID_2_)" fill="#FFFFFF" d="M105.957-0.071h4.799l7.256,33.893h-4.799l-1.441-7.257l-6.831-0.047
		l-1.441,7.304h-4.799L105.957-0.071z M108.345,9.617l-2.434,12.151h4.891l-2.409-12.151H108.345z"/>
	<polygon clip-path="url(#SVGID_2_)" fill="#FFFFFF" points="6.415,93.448 6.415,42.609 28.219,42.609 28.219,49.877 13.682,49.877 
		13.682,64.413 24.567,64.413 24.567,71.68 13.682,71.68 13.682,86.18 28.219,86.18 28.219,93.448 	"/>
	<path clip-path="url(#SVGID_2_)" fill="#FFFFFF" d="M40.524,42.609h7.195l10.884,50.839h-7.195l-2.163-10.885l-10.247-0.07
		l-2.163,10.955h-7.196L40.524,42.609z M44.103,57.145L40.45,75.366h7.338l-3.616-18.222H44.103z"/>
	<path clip-path="url(#SVGID_2_)" fill="#FFFFFF" d="M62.216,42.68l14.537,0.07c1.984,0,3.679,0.704,5.087,2.11
		c1.404,1.405,2.107,3.101,2.107,5.086v14.538c0,2.765-1.192,4.845-3.58,6.237l3.58,22.727h-7.195L73.137,71.68h-3.722v21.769
		h-7.199V42.68z M69.415,49.877v14.676h4.572c0.779,0,1.438-0.276,1.969-0.832c0.531-0.555,0.798-1.199,0.798-1.932v-9.077
		c0-0.779-0.267-1.447-0.798-2.001c-0.531-0.556-1.189-0.834-1.969-0.834H69.415z"/>
	<polygon clip-path="url(#SVGID_2_)" fill="#FFFFFF" points="85.83,42.609 107.598,42.609 107.598,49.877 100.33,49.877 
		100.33,93.448 93.098,93.448 93.098,49.877 85.83,49.877 	"/>
	<polygon clip-path="url(#SVGID_2_)" fill="#FFFFFF" points="110.859,42.609 118.127,42.609 118.127,64.413 125.396,64.413 
		125.396,42.609 132.664,42.609 132.664,93.448 125.396,93.448 125.396,71.68 118.127,71.68 118.127,93.448 110.859,93.448 	"/>
	<path clip-path="url(#SVGID_2_)" fill="#FFFFFF" d="M142.378,45.817c2.126-2.138,4.689-3.208,7.693-3.208
		c3,0,5.567,1.07,7.693,3.208c2.127,2.14,3.192,4.71,3.192,7.711v29.319c0,1.017,0.354,1.873,1.062,2.571
		c0.71,0.697,1.574,1.047,2.591,1.047v7.266c-2.861,0-5.331-0.97-7.412-2.907c-2.032,1.751-4.408,2.624-7.125,2.624
		c-3.003,0-5.567-1.064-7.693-3.19c-2.126-2.126-3.191-4.69-3.191-7.694V53.528C139.187,50.527,140.251,47.957,142.378,45.817
		 M152.658,50.941c-0.709-0.71-1.571-1.064-2.587-1.064c-1.017,0-1.874,0.354-2.569,1.064c-0.698,0.708-1.047,1.57-1.047,2.587
		v29.035c0,1.016,0.349,1.873,1.047,2.572c0.695,0.698,1.553,1.044,2.569,1.044c1.016,0,1.878-0.346,2.587-1.044
		c0.71-0.699,1.065-1.557,1.065-2.572V53.528C153.723,52.512,153.368,51.649,152.658,50.941"/>
	<path clip-path="url(#SVGID_2_)" fill="#FFFFFF" d="M167.617,42.609h7.269v39.954c0,1.016,0.349,1.873,1.047,2.572
		c0.697,0.698,1.559,1.044,2.587,1.044c1.029,0,1.89-0.346,2.588-1.044c0.698-0.699,1.047-1.557,1.047-2.572V42.609h7.268v39.954
		c0,3.004-1.071,5.568-3.209,7.694c-2.138,2.126-4.702,3.19-7.693,3.19c-2.991,0-5.554-1.064-7.693-3.19
		c-2.138-2.126-3.209-4.69-3.209-7.694V42.609z"/>
	<path clip-path="url(#SVGID_2_)" fill="#FFFFFF" d="M203.037,42.609h7.195l10.884,50.839h-7.195l-2.163-10.885l-10.248-0.07
		l-2.163,10.955h-7.196L203.037,42.609z M206.616,57.145l-3.652,18.222h7.338l-3.617-18.222H206.616z"/>
	<polygon clip-path="url(#SVGID_2_)" fill="#FFFFFF" points="224.732,42.609 232.001,42.609 232.001,60.761 239.269,42.609 
		246.538,42.609 238.171,63.524 246.538,93.448 239.269,93.448 233.809,74.41 232.001,78.913 232.001,93.448 224.732,93.448 	"/>
	<polygon clip-path="url(#SVGID_2_)" fill="#FFFFFF" points="249.762,93.448 249.762,42.609 271.568,42.609 271.568,49.877 
		257.031,49.877 257.031,64.413 267.915,64.413 267.915,71.68 257.031,71.68 257.031,86.18 271.568,86.18 271.568,93.448 	"/>
	<path clip-path="url(#SVGID_2_)" fill="#FFFFFF" d="M9.181,105.462c2.126-2.139,4.689-3.209,7.692-3.209
		c3,0,5.568,1.07,7.694,3.209c2.126,2.138,3.192,4.708,3.192,7.711v3.616h-7.233v-3.616c0-1.016-0.354-1.88-1.065-2.591
		c-0.709-0.707-1.571-1.062-2.588-1.062c-1.016,0-1.875,0.354-2.569,1.062c-0.697,0.711-1.046,1.575-1.046,2.591v29.034
		c0,1.016,0.349,1.874,1.046,2.569c0.694,0.697,1.553,1.046,2.569,1.046c1.017,0,1.879-0.349,2.588-1.046
		c0.71-0.695,1.065-1.554,1.065-2.569v-3.653h7.233v3.653c0,3.003-1.066,5.567-3.192,7.692c-2.126,2.127-4.693,3.192-7.694,3.192
		c-3.002,0-5.566-1.065-7.692-3.192c-2.127-2.125-3.191-4.689-3.191-7.692v-29.034C5.99,110.17,7.054,107.6,9.181,105.462"/>
	<polygon clip-path="url(#SVGID_2_)" fill="#FFFFFF" points="33.395,153.092 33.395,102.253 55.199,102.253 55.199,109.521 
		40.663,109.521 40.663,124.055 51.547,124.055 51.547,131.322 40.663,131.322 40.663,145.822 55.199,145.822 55.199,153.092 	"/>
	<polygon clip-path="url(#SVGID_2_)" fill="#FFFFFF" points="59.665,102.253 66.934,102.253 74.199,127.671 74.199,102.253 
		81.467,102.253 81.467,153.092 74.199,153.092 66.934,127.671 66.934,153.092 59.665,153.092 	"/>
	<polygon clip-path="url(#SVGID_2_)" fill="#FFFFFF" points="84.413,102.253 106.181,102.253 106.181,109.521 98.913,109.521 
		98.913,153.092 91.681,153.092 91.681,109.521 84.413,109.521 	"/>
	<polygon clip-path="url(#SVGID_2_)" fill="#FFFFFF" points="109.439,153.092 109.439,102.253 131.244,102.253 131.244,109.521 
		116.708,109.521 116.708,124.055 127.592,124.055 127.592,131.322 116.708,131.322 116.708,145.822 131.244,145.822 
		131.244,153.092 	"/>
	<path clip-path="url(#SVGID_2_)" fill="#FFFFFF" d="M135.996,102.322l14.537,0.073c1.984,0,3.679,0.703,5.086,2.106
		c1.405,1.409,2.109,3.104,2.109,5.088v14.537c0,2.764-1.192,4.845-3.58,6.24l3.58,22.725h-7.195l-3.616-21.77h-3.723v21.77h-7.198
		V102.322z M143.193,109.521v14.677h4.572c0.78,0,1.438-0.276,1.969-0.832c0.531-0.555,0.798-1.201,0.798-1.932v-9.076
		c0-0.779-0.267-1.447-0.798-2.006c-0.531-0.555-1.189-0.831-1.969-0.831H143.193z"/>
</g>
</svg>
