<?xml version="1.0" encoding="utf-8"?>
<!-- Generator: Adobe Illustrator 19.0.0, SVG Export Plug-In . SVG Version: 6.00 Build 0)  -->
<svg version="1.1" id="Layer_1" xmlns="http://www.w3.org/2000/svg" xmlns:xlink="http://www.w3.org/1999/xlink" x="0px" y="0px"
	 viewBox="0 0 200 54" style="enable-background:new 0 0 200 54;" xml:space="preserve">
<style type="text/css">
	.st0{fill:#231F20;}
	.st1{fill:#FFFFFF;}
</style>
<rect id="XMLID_13_" class="st0" width="200" height="54"/>
<g id="XMLID_2_">
	<path id="XMLID_3_" class="st1" d="M168.3,49.9h7.5V33.9c0-3.8,1.7-8.7,7.4-8.7c3.8,0,5.6,1.9,5.6,6.2v18.6h7.5V29.2
		c0-9.1-6.1-11.3-11.4-11.3c-4.3,0-7.3,1.7-9,3.8h-0.1V4.7h-7.5V49.9z M165.9,26.8c-1.9-4.7-5.6-8.9-13.2-8.9c-10.1,0-16,7-16,16.4
		c0,9.3,5.9,16.4,15.5,16.4c8.5,0,12.1-5,14.2-9.6l-6.4-3.4c-1.2,2.8-3.1,6.1-7.6,6.1c-5.3,0-7.7-4.6-7.7-9.5c0-4.9,2.7-9.5,8.1-9.5
		c3,0,5.6,1.9,6.6,5L165.9,26.8z M111,30.3c0.8-3.3,3.7-6.2,8.1-6.2c5.1,0,7.1,4.5,7.1,6.2H111z M134.2,36.1
		c0-11.2-4.6-18.2-15-18.2c-10.1,0-16,7-16,16.4c0,9.3,5.9,16.4,16,16.4c8.5,0,13-4.1,15.4-7.7l-6.4-3.7c-0.7,1.1-3.1,4.5-9,4.5
		c-4.1,0-8-3-8.1-7.7H134.2z M88.4,11.8v30.9c0,4.8,2.1,7.5,8.3,7.5c2.4,0,4.2-0.4,6-0.7v-6.2c-1.1,0.1-2.3,0.4-3.3,0.4
		c-2.9,0-3.4-1.4-3.4-3.8V24.1h6.7v-5.4H96V4.3L88.4,11.8z M75.8,49.9h7.5V4.7h-7.5V49.9z M62.8,38.7c0,4-4.5,5.8-8,5.8
		c-2.7,0-4.9-1.5-4.9-3.9c0-3,2.4-3.8,5.2-4.3l4.1-0.9c1.4-0.2,2.6-0.6,3.6-1.1V38.7z M70.4,28.2c0-8.9-6.7-10.3-13.5-10.3
		c-6.9,0-13.4,2.8-13.4,10.2l7.5,0.3c0-3.4,1.4-4.7,5.8-4.7c3.3,0,5.9,0.9,5.9,4v0.9c-1.9,0.7-5.4,1.3-8.2,1.9l-3.2,0.6
		C46.9,32,42,34.7,42,40.8c0,6.1,4.7,9.8,10.6,9.8c3.9,0,7.3-1.2,10.2-3.6c0,0.8,0.2,2.1,0.7,2.8h8c-0.4-0.7-1.2-2-1.2-5.3V28.2z
		 M40.9,18.6C38.8,9.4,32,4.8,23.2,4.8C10,4.8,2.3,15.5,2.3,27.9C2.3,40.3,9.1,51,23.2,51c8.8,0,14.7-4.3,18.2-13.1l-7.5-3.5
		c-1.6,5.1-4.9,8.9-10.6,8.9c-8.8,0-12.4-7.8-12.4-15.5c0-7.7,3.6-15.5,12.4-15.5c5,0,9,3.3,9.7,8.2L40.9,18.6z"/>
</g>
</svg>
