<?xml version="1.0" encoding="UTF-8" standalone="no"?>
<!-- Created with Inkscape (http://www.inkscape.org/) -->

<svg
   xmlns:dc="http://purl.org/dc/elements/1.1/"
   xmlns:cc="http://creativecommons.org/ns#"
   xmlns:rdf="http://www.w3.org/1999/02/22-rdf-syntax-ns#"
   xmlns:svg="http://www.w3.org/2000/svg"
   xmlns="http://www.w3.org/2000/svg"
   xmlns:sodipodi="http://sodipodi.sourceforge.net/DTD/sodipodi-0.dtd"
   xmlns:inkscape="http://www.inkscape.org/namespaces/inkscape"
   width="200"
   height="54"
   viewBox="0 0 200 54.000001"
   id="svg3360"
   version="1.1"
   inkscape:version="0.91 r13725"
   sodipodi:docname="LCSN_LOGO_v3.svg">
  <defs
     id="defs3362" />
  <sodipodi:namedview
     id="base"
     pagecolor="#ffffff"
     bordercolor="#666666"
     borderopacity="1.0"
     inkscape:pageopacity="0.0"
     inkscape:pageshadow="2"
     inkscape:zoom="2"
     inkscape:cx="94.639601"
     inkscape:cy="160"
     inkscape:document-units="px"
     inkscape:current-layer="layer1"
     showgrid="false"
     units="px"
     inkscape:window-width="1280"
     inkscape:window-height="962"
     inkscape:window-x="-8"
     inkscape:window-y="-8"
     inkscape:window-maximized="1" />
  <metadata
     id="metadata3365">
    <rdf:RDF>
      <cc:Work
         rdf:about="">
        <dc:format>image/svg+xml</dc:format>
        <dc:type
           rdf:resource="http://purl.org/dc/dcmitype/StillImage" />
        <dc:title></dc:title>
      </cc:Work>
    </rdf:RDF>
  </metadata>
  <g
     inkscape:label="Layer 1"
     inkscape:groupmode="layer"
     id="layer1"
     transform="translate(0,-998.36216)">
    <rect
       style="fill:#000000"
       id="rect3368"
       width="200"
       height="54"
       x="0"
       y="998.36218" />
    <g
       style="font-style:normal;font-weight:normal;font-size:40px;line-height:125%;font-family:sans-serif;letter-spacing:-1.39999998px;word-spacing:0px;fill:#ffffff;fill-opacity:1;stroke:none;stroke-width:1px;stroke-linecap:butt;stroke-linejoin:miter;stroke-opacity:1"
       id="text3370">
      <path
         d="m 1.9483643,1032.8622 0,-1.3587 2.4353027,0 0,-16.4062 -2.4353027,0 0,-1.3715 7.4725341,0 0,1.3715 -2.4353027,0 0,16.1883 8.7414553,0 0,-3.2043 1.576538,0 0,4.7809 -15.3552247,0 z"
         style="font-style:normal;font-variant:normal;font-weight:normal;font-stretch:normal;font-size:26.25px;font-family:serif;-inkscape-font-specification:serif;letter-spacing:-1.39999998px"
         id="path3375" />
      <path
         d="m 26.977808,1028.5812 0,-2.8839 -3.03772,0 q -1.755981,0 -2.614746,0.7562 -0.858764,0.7562 -0.858764,2.3199 0,1.4228 0.871582,2.2559 0.871582,0.8331 2.358398,0.8331 1.473999,0 2.371216,-0.91 0.910034,-0.91 0.910034,-2.3712 z m 2.358398,-4.2298 0,7.1521 2.102051,0 0,1.3587 -4.460449,0 0,-1.474 q -0.78186,0.9485 -1.807251,1.3971 -1.025391,0.4486 -2.396851,0.4486 -2.268676,0 -3.601684,-1.2048 -1.333008,-1.2049 -1.333008,-3.2557 0,-2.1148 1.525269,-3.2812 1.525268,-1.1664 4.30664,-1.1664 l 3.306885,0 0,-0.9357 q 0,-1.5509 -0.948486,-2.3968 -0.935669,-0.8588 -2.640381,-0.8588 -1.409912,0 -2.243042,0.6409 -0.83313,0.6409 -1.038208,1.897 l -1.217652,0 0,-2.7558 q 1.230469,-0.5255 2.384034,-0.7818 1.166381,-0.2692 2.268676,-0.2692 2.832642,0 4.306641,1.4099 1.486816,1.3971 1.486816,4.0759 z"
         style="font-style:normal;font-variant:normal;font-weight:normal;font-stretch:normal;font-size:26.25px;font-family:serif;-inkscape-font-specification:serif;letter-spacing:-1.39999998px"
         id="path3377" />
      <path
         d="m 44.368092,1021.8905 q 0.679321,-1.4996 1.730346,-2.2559 1.063843,-0.769 2.473755,-0.769 2.140503,0 3.191528,1.333 1.051026,1.3202 1.051026,3.999 l 0,7.3059 2.127685,0 0,1.3587 -6.536865,0 0,-1.3587 2.050781,0 0,-7.0367 q 0,-2.0892 -0.615234,-2.9736 -0.615234,-0.8844 -2.037964,-0.8844 -1.576538,0 -2.409668,1.192 -0.820312,1.192 -0.820312,3.4735 l 0,6.2292 2.050781,0 0,1.3587 -6.459961,0 0,-1.3587 2.050781,0 0,-7.1264 q 0,-2.038 -0.615234,-2.8968 -0.615234,-0.8715 -2.037964,-0.8715 -1.576538,0 -2.409668,1.192 -0.820312,1.192 -0.820312,3.4735 l 0,6.2292 2.050781,0 0,1.3587 -6.536865,0 0,-1.3587 2.127685,0 0,-10.9204 -2.255859,0 0,-1.3458 4.614258,0 0,2.4225 q 0.653686,-1.3587 1.666259,-2.0764 1.012574,-0.7178 2.294312,-0.7178 1.589355,0 2.653198,0.7947 1.063843,0.7818 1.42273,2.2302 z"
         style="font-style:normal;font-variant:normal;font-weight:normal;font-stretch:normal;font-size:26.25px;font-family:serif;-inkscape-font-specification:serif;letter-spacing:-1.39999998px"
         id="path3379" />
      <path
         d="m 62.181347,1031.965 q 1.896973,0 2.858276,-1.4997 0.974121,-1.4996 0.974121,-4.422 0,-2.9223 -0.974121,-4.4091 -0.961303,-1.4997 -2.858276,-1.4997 -1.896973,0 -2.871094,1.4997 -0.961304,1.4868 -0.961304,4.4091 0,2.9224 0.974122,4.422 0.974121,1.4997 2.858276,1.4997 z m 0,1.2689 q -2.973633,0 -4.780884,-1.9611 -1.807251,-1.9738 -1.807251,-5.2295 0,-3.2556 1.794434,-5.2166 1.807251,-1.9611 4.793701,-1.9611 2.98645,0 4.780884,1.9611 1.807251,1.961 1.807251,5.2166 0,3.2557 -1.807251,5.2295 -1.794434,1.9611 -4.780884,1.9611 z"
         style="font-style:normal;font-variant:normal;font-weight:normal;font-stretch:normal;font-size:26.25px;font-family:serif;-inkscape-font-specification:serif;letter-spacing:-1.39999998px"
         id="path3381" />
      <path
         d="m 69.753517,1032.8622 0,-1.3587 2.127686,0 0,-10.8947 -2.25586,0 0,-1.3715 4.614258,0 0,2.4225 q 0.653687,-1.3843 1.691895,-2.0892 1.051025,-0.705 2.435302,-0.705 2.25586,0 3.319703,1.2946 1.063842,1.2945 1.063842,4.0374 l 0,7.3059 2.102051,0 0,1.3587 -6.51123,0 0,-1.3587 2.037964,0 0,-6.5625 q 0,-2.4993 -0.615235,-3.4222 -0.615234,-0.9357 -2.166138,-0.9357 -1.640625,0 -2.499389,1.2049 -0.858765,1.192 -0.858765,3.4863 l 0,6.2292 2.050781,0 0,1.3587 -6.536865,0 z"
         style="font-style:normal;font-variant:normal;font-weight:normal;font-stretch:normal;font-size:26.25px;font-family:serif;-inkscape-font-specification:serif;letter-spacing:-1.39999998px"
         id="path3383" />
      <path
         d="m 87.028442,1020.6088 -2.076416,0 0,-1.3715 2.076416,0 0,-4.2297 2.371216,0 0,4.2297 4.434815,0 0,1.3715 -4.434815,0 0,8.6517 q 0,1.7303 0.333252,2.2174 0.333252,0.4871 1.230469,0.4871 0.922851,0 1.345825,-0.5384 0.422974,-0.5511 0.448608,-1.7688 l 1.781617,0 q -0.102539,1.8586 -1.012574,2.7173 -0.910034,0.8588 -2.768554,0.8588 -2.037964,0 -2.883911,-0.8972 -0.845948,-0.9101 -0.845948,-3.0762 l 0,-8.6517 z"
         style="font-style:normal;font-variant:normal;font-weight:normal;font-stretch:normal;font-size:26.25px;font-family:serif;-inkscape-font-specification:serif;letter-spacing:-1.39999998px"
         id="path3385" />
      <path
         d="m 94.510887,1024.8257 6.562503,0 0,1.9995 -6.562503,0 0,-1.9995 z"
         style="font-style:normal;font-variant:normal;font-weight:normal;font-stretch:normal;font-size:26.25px;font-family:serif;-inkscape-font-specification:serif;letter-spacing:-1.39999998px"
         id="path3387" />
      <path
         d="m 107.31255,1031.5035 2.38403,0 q 3.72986,0 5.71655,-2.1276 1.99951,-2.1277 1.99951,-6.1011 0,-3.9734 -1.98669,-6.0755 -1.9867,-2.102 -5.72937,-2.102 l -2.38403,0 0,16.4062 z m -5.03724,1.3587 0,-1.3587 2.43531,0 0,-16.4062 -2.43531,0 0,-1.3715 7.61353,0 q 4.94751,0 7.70325,2.5251 2.76855,2.525 2.76855,7.0239 0,4.5117 -2.76855,7.0495 -2.76856,2.5379 -7.70325,2.5379 l -7.61353,0 z"
         style="font-style:normal;font-variant:normal;font-weight:normal;font-stretch:normal;font-size:26.25px;font-family:serif;-inkscape-font-specification:serif;letter-spacing:-1.39999998px"
         id="path3389" />
      <path
         d="m 128.39424,1031.965 q 1.89697,0 2.85828,-1.4997 0.97412,-1.4996 0.97412,-4.422 0,-2.9223 -0.97412,-4.4091 -0.96131,-1.4997 -2.85828,-1.4997 -1.89697,0 -2.87109,1.4997 -0.96131,1.4868 -0.96131,4.4091 0,2.9224 0.97412,4.422 0.97413,1.4997 2.85828,1.4997 z m 0,1.2689 q -2.97363,0 -4.78088,-1.9611 -1.80725,-1.9738 -1.80725,-5.2295 0,-3.2556 1.79443,-5.2166 1.80725,-1.9611 4.7937,-1.9611 2.98645,0 4.78089,1.9611 1.80725,1.961 1.80725,5.2166 0,3.2557 -1.80725,5.2295 -1.79444,1.9611 -4.78089,1.9611 z"
         style="font-style:normal;font-variant:normal;font-weight:normal;font-stretch:normal;font-size:26.25px;font-family:serif;-inkscape-font-specification:serif;letter-spacing:-1.39999998px"
         id="path3391" />
      <path
         d="m 135.9664,1032.8622 0,-1.3587 2.12769,0 0,-17.2265 -2.25586,0 0,-1.3587 4.61425,0 0,8.7415 q 0.65369,-1.3843 1.6919,-2.0892 1.05102,-0.705 2.4353,-0.705 2.25586,0 3.3197,1.2946 1.06385,1.2945 1.06385,4.0374 l 0,7.3059 2.10205,0 0,1.3587 -6.51123,0 0,-1.3587 2.03796,0 0,-6.5625 q 0,-2.4993 -0.61523,-3.4094 -0.60242,-0.9228 -2.16614,-0.9228 -1.64063,0 -2.49939,1.192 -0.85877,1.192 -0.85877,3.4735 l 0,6.2292 2.05079,0 0,1.3587 -6.53687,0 z"
         style="font-style:normal;font-variant:normal;font-weight:normal;font-stretch:normal;font-size:26.25px;font-family:serif;-inkscape-font-specification:serif;letter-spacing:-1.39999998px"
         id="path3393" />
      <path
         d="m 164.63599,1026.2997 -10.16419,0 0,0.1025 q 0,2.7558 1.03821,4.1657 1.03821,1.3971 3.06335,1.3971 1.55091,0 2.53785,-0.8075 0.99975,-0.8203 1.39709,-2.4225 l 1.89697,0 q -0.56396,2.243 -2.08923,3.371 -1.51245,1.1279 -3.98621,1.1279 -2.98645,0 -4.80651,-1.9611 -1.80726,-1.9738 -1.80726,-5.2295 0,-3.2299 1.78162,-5.2038 1.78162,-1.9739 4.67835,-1.9739 3.08898,0 4.74243,1.9098 1.65344,1.897 1.71753,5.5243 z m -2.78138,-1.3587 q -0.0769,-2.384 -1.01257,-3.5888 -0.92285,-1.2177 -2.66601,-1.2177 -1.62781,0 -2.56348,1.2177 -0.93567,1.2176 -1.14075,3.5888 l 7.38281,0 z"
         style="font-style:normal;font-variant:normal;font-weight:normal;font-stretch:normal;font-size:26.25px;font-family:serif;-inkscape-font-specification:serif;letter-spacing:-1.39999998px"
         id="path3395" />
      <path
         d="m 177.09158,1019.2117 0,3.4094 -1.35864,0 q -0.0641,-1.0126 -0.56396,-1.5125 -0.49988,-0.4998 -1.46119,-0.4998 -1.74316,0 -2.67883,1.2048 -0.92285,1.2048 -0.92285,3.4607 l 0,6.2292 2.7301,0 0,1.3587 -7.21618,0 0,-1.3587 2.12768,0 0,-10.9204 -2.25586,0 0,-1.3458 4.61426,0 0,2.4225 q 0.69214,-1.4227 1.78162,-2.1021 1.08947,-0.6921 2.65319,-0.6921 0.57679,0 1.20484,0.09 0.64087,0.09 1.34582,0.2564 z"
         style="font-style:normal;font-variant:normal;font-weight:normal;font-stretch:normal;font-size:26.25px;font-family:serif;-inkscape-font-specification:serif;letter-spacing:-1.39999998px"
         id="path3397" />
      <path
         d="m 178.53703,1020.6088 -2.07641,0 0,-1.3715 2.07641,0 0,-4.2297 2.37122,0 0,4.2297 4.43481,0 0,1.3715 -4.43481,0 0,8.6517 q 0,1.7303 0.33325,2.2174 0.33325,0.4871 1.23047,0.4871 0.92285,0 1.34582,-0.5384 0.42298,-0.5511 0.44861,-1.7688 l 1.78162,0 q -0.10254,1.8586 -1.01257,2.7173 -0.91004,0.8588 -2.76856,0.8588 -2.03796,0 -2.88391,-0.8972 -0.84595,-0.9101 -0.84595,-3.0762 l 0,-8.6517 z"
         style="font-style:normal;font-variant:normal;font-weight:normal;font-stretch:normal;font-size:26.25px;font-family:serif;-inkscape-font-specification:serif;letter-spacing:-1.39999998px"
         id="path3399" />
      <path
         d="m 190.5312,1035.3616 0.89722,-2.2687 -5.0885,-12.4841 -1.5509,0 0,-1.3715 6.2677,0 0,1.3715 -2.17896,0 3.8324,9.3695 3.8324,-9.3695 -2.03797,0 0,-1.3715 5.11414,0 0,1.3715 -1.52527,0 -6.24207,15.3296 q -0.64086,1.5893 -1.42272,2.1661 -0.78187,0.5896 -2.20459,0.5896 -0.60242,0 -1.24329,-0.1025 -0.62805,-0.1026 -1.26892,-0.2948 l 0,-2.602 1.20483,0 q 0.0769,0.8716 0.43579,1.2433 0.37171,0.3845 1.14075,0.3845 0.70496,0 1.12793,-0.3973 0.43579,-0.3845 0.91003,-1.5637 z"
         style="font-style:normal;font-variant:normal;font-weight:normal;font-stretch:normal;font-size:26.25px;font-family:serif;-inkscape-font-specification:serif;letter-spacing:-1.39999998px"
         id="path3401" />
    </g>
  </g>
</svg>
