<?xml version="1.0" encoding="utf-8"?>
<!-- Generator: Adobe Illustrator 16.0.0, SVG Export Plug-In . SVG Version: 6.00 Build 0)  -->
<!DOCTYPE svg PUBLIC "-//W3C//DTD SVG 1.1//EN" "http://www.w3.org/Graphics/SVG/1.1/DTD/svg11.dtd">
<svg version="1.1" id="Layer_1" xmlns="http://www.w3.org/2000/svg" xmlns:xlink="http://www.w3.org/1999/xlink" x="0px" y="0px"
	 width="612px" height="792px" viewBox="0 0 612 792" enable-background="new 0 0 612 792" xml:space="preserve">
<g transform="matrix(0.997548,-5.96331e-19,-6.0053e-19,0.993007,-0.00010787,-0.105271)">
	<g id="Layer1">
		
			<rect x="-0.135" y="315.693" stroke="#000000" stroke-linecap="round" stroke-linejoin="round" stroke-miterlimit="1.4142" width="613.505" height="166.403"/>
	</g>
</g>
<g transform="matrix(0.317404,0,0,0.317404,2.80835,-98.692)">
	<g id="New_Logo">
		<g>
			<g id="Wave" transform="matrix(1,0,0,0.443422,-1.77636e-15,220.348)">
				<g transform="matrix(1,0,0,1,-13.4765,105.81)">
					<path fill="none" stroke="#EFEFEF" stroke-width="0.85" stroke-miterlimit="10" d="M231.666,2914.974l0.686,1.034l0.622,0.069
						l0.625,0.208l0.614-1.242l0.621-1.304l0.622,2.2l0.621,1.998l0.688-1.651l0.615-0.486l0.621,1.312l0.622-0.555l0.615-0.208
						l0.62,0.902l0.625-1.103l0.686-2.137l0.621,0.347l0.614,1.166l0.625,0.076l0.622-0.694l0.615-1.235l0.621-1.103l0.688-0.208
						l0.621,1.79l0.622,0.555l0.614-1.589l0.622-0.271l0.621,0.895l0.615,0.965l0.694,0.34l0.615,0.965l0.622-0.618l0.621-1.79
						l0.618,1.304l0.62,1.242l0.622-0.625l0.689-0.756l0.622-0.132l0.614,0.687l0.622,0.965l0.621,1.859l0.615-1.034l0.621-3.171
						l0.688,0.902l0.621,0.409l0.615-1.513l0.621,0.409l0.623-0.687l0.622-0.694l0.615,1.311l0.685,1.998l0.625,0.895l0.622-1.859
						l0.615,0.277l0.621,2.616l0.62-1.034l0.615-1.45l0.695-0.201l0.615-1.242l0.62,1.52l0.621,2.886l0.615,0.278l0.625-1.86
						l0.621-2.061l0.685-0.076l0.621-0.271l0.618,0.965l0.621,2.886l0.62-2.338l0.615-2.13l0.621,1.922l0.689,1.45l0.62-0.694
						l0.622-3.094l0.615,0.069l0.621,1.443l0.62,0.347l0.618,2.061l0.692-0.958l0.615-1.52l0.62,0.617l0.625,0.625l0.615,0.548
						l0.621-0.687l0.621-0.548l0.688-1.86l0.615-0.486l0.621,2.893l0.621-0.618l0.62-1.242l0.615,1.589l0.622,2.061l0.689,0.486
						l0.62-0.763l0.615,0.902l0.621-2.546l0.625-2.824l0.615,2.546l0.62,0.826l0.686-1.034l0.625-0.139l0.62,0.687"/>
				</g>
				<g transform="matrix(1,0,0,1,-13.4765,105.81)">
					<path fill="none" stroke="#EFEFEF" stroke-width="0.85" stroke-miterlimit="10" d="M294.666,2915.251l0.62,0.687l0.615-0.201
						l0.621-0.694l0.621,1.304l0.615-1.304l0.694-1.721l0.615,2.415l0.621,1.027l0.621-1.103l0.614-0.139l0.625,0.278l0.621-0.826
						l0.686-0.34l0.62,2.824l0.618,0.687l0.621-2.685l0.621,1.096l0.615,1.52l0.62-0.826l0.689,0.271l0.621-0.826l0.621-0.958
						l0.614,1.783l0.621,9.637l0.621,26.166l0.618,31.328l0.685-4.198l0.622-67.339l0.625-79.797l0.621-3.23l0.615,75.249
						l0.62,53.427l0.621-29.739l0.689-62.312l0.614-45.167l0.621-4.683l0.621,71.471l0.615,88.47l0.621,12.531l0.623-36.49
						l0.686-24.854l0.621,7.022l0.615,2.824l0.623-37.94l0.622-17.693l0.615,23.681l0.621,20.732l0.688,11.49l0.621-0.34
						l0.622,2.824l0.615,8.465l0.621-16.451l0.62-30.023l0.615-0.201l0.695,31.598l0.615,21.96l0.62-10.116l0.621-37.319
						l0.618-33.461l0.621-9.086l0.621,6.883l0.685,19.553l0.625,8.951l0.615,9.641l0.62,34.152l0.621,14.384l0.615-18.311
						l0.622-25.749l0.688-23.345l0.622,0.347l0.621,38.97l0.615,60.997l0.622,18.387l0.623-69.885l0.615-100.866l0.686-50.88
						l0.621,33.742l0.623,91.36l0.615,66.305l0.621-3.788l0.621-48.952l0.621-37.937l0.688,4.132l0.615,22.995l0.621,19.005
						l0.621-2.685l0.614-30.297l0.621-28.778l0.625-5.301l0.685,22.516l0.622,28.573l0.615-4.552l0.625-8.944l0.621,36.76
						l0.614,42.069l0.621-15.147l0.689-53.358l0.621-12.323l0.62,29.33l0.615,0.208l0.621-3.511"/>
				</g>
				<g transform="matrix(1,0,0,1,-13.4765,105.81)">
					<path fill="none" stroke="#EFEFEF" stroke-width="0.85" stroke-miterlimit="10" d="M357.591,2934.117l0.621-3.511l0.621,15.695
						l0.615-21.551l0.694-44.06l0.615-22.655l0.621,10.328l0.621,50.6l0.617,52.13l0.621,5.988l0.621-21.343l0.689-30.433
						l0.62-32.774l0.615-3.997l0.621-0.135l0.621-6.057l0.615,19.414l0.62,9.433l0.689-18.592l0.621-6.123l0.615,17.211l0.62,14.869
						l0.625-4.267l0.621-4.885l0.615,11.428l0.685,0.617l0.625-29.333l0.622-15.764l0.615,8.191l0.62-6.196l0.621,23.137
						l0.615,65.677l0.695,32.708l0.614-14.113l0.621-40.827l0.621-21.891l0.615,29.392l0.625,18.588l0.62-32.632l0.686-45.51
						l0.621-15.352l0.618,11.771l0.62,15.834l0.622,13.294l0.615-3.58l0.621-16.254l0.688-2.338l0.622,12.875l0.621,10.81
						l0.615-8.611l0.622-7.639l0.62,10.193l0.618-1.242l0.692-8.333l0.614-13.631l0.621-13.013l0.625,34.978l0.615,50.533
						l0.621-1.235l0.62-49.715l0.689-37.177l0.615,29.607l0.621,51.637l0.62-5.44l0.621-49.365l0.615-18.866l0.622,27.955
						l0.688,15.49l0.622-13.843l0.615-7.091l0.621-7.639l0.625-6.886l0.614,19.209l0.621,16.25l0.686-13.086l0.625-8.809
						l0.62,10.051l0.615-4.267l0.621-15.008l0.621,2.685l0.614,7.709l0.695-1.721l0.615-1.374l0.621,1.096l0.62,7.851l0.615,26.988
						l0.625,26.235l0.621-24.792l0.685-49.979l0.622,0.479l0.618,23.82l0.621,4.753l0.621,13.148l0.614,40.688l0.621,18.387
						l0.689-54.662l0.621-50.607l0.62,12.802l0.615,18.661l0.621-9.294l0.621-10.467l0.618,20.795"/>
				</g>
				<g transform="matrix(1,0,0,1,-13.4765,105.81)">
					<path fill="none" stroke="#EFEFEF" stroke-width="0.85" stroke-miterlimit="10" d="M420.524,2897.35l0.618,20.795l0.685,30.842
						l0.622-8.333l0.625-27.678l0.62-11.702l0.615-7.365l0.621,8.056l0.621,23.064l0.688,9.707l0.615,1.242l0.621-9.915
						l0.621-22.651l0.615-31.123l0.62-26.783l0.625,27.404l0.686,50.052l0.621-6.814l0.614-39.109l0.625-13.218l0.622,32.566
						l0.615,50.124l0.621,17.416l0.688-12.184l0.621-15.633l0.622-3.92l0.615,14.391l0.62,9.221l0.621-15.827l0.615-17.562
						l0.694,1.86l0.615-7.924l0.621-15.83l0.621,14.186l0.618,12.184l0.621-10.949l0.62-9.707l0.686-9.846l0.625-10.325l0.614,6.953
						l0.622,36.691l0.621,14.946l0.615-39.179l0.622-27.4h0.688l0.622,1.721l0.621,6.609l0.615,0.552l0.62,4.201l0.625,18.11
						l0.615,23.82l0.686,23.272l0.62-13.294l0.625-50.117l0.615-29.059l0.621,29.059l0.621,62.794l0.62,18.45l0.689-39.175
						l0.615-31.879l0.621-3.167l0.62,4.684l0.615,2.203l0.621,3.646l0.625-1.169l0.685,5.374l0.622,12.323l0.615-16.389
						l0.625-22.238l0.62,4.475l0.615,29.191l0.621,39.314l0.689-1.173l0.62-24.229l0.621,2.886l0.615-1.582l0.621-17.485
						l0.621-0.555l0.614,10.741l0.695,2.415l0.615-3.997l0.621-19.275l0.62-29.125l0.618-9.502l0.621,22.099l0.621,60.525
						l0.688,41.444l0.621-12.531l0.615,6.813l0.621,35.873l0.62,65.688l0.615,95.697l0.621,33.735l0.689-62.926l0.62-140.798
						l0.615-164.278l0.622-109.401l0.625-57.215l0.621-42.825l0.614-83.586l0.686-135.909l0.625-95.77"/>
				</g>
				<g transform="matrix(1,0,0,1,-13.4765,105.81)">
					<path fill="none" stroke="#EFEFEF" stroke-width="0.85" stroke-miterlimit="10" d="M483.517,2422.904l0.625-95.77l0.622,9.364
						l0.614,102.448l0.621,167.376l0.621,210.749l0.615,255.229l0.694,265.692l0.615,158.29l0.621-11.636l0.621-119.808
						l0.615-162.55l0.623-177.628l0.622-172.132l0.686-152.638l0.621-89.365l0.617,34.287l0.622,153.325l0.621,162.28l0.615,38.419
						l0.622-50.672l0.688-23.272l0.622,15.702l0.621,62.648l0.614,124.485l0.621,87.71l0.621-79.315l0.618-191.609l0.691-132.329
						l0.615-18.176l0.621,41.86l0.625,20.653l0.615-23.681l0.62-8.403l0.621,28.299l0.689,21l0.615,6.678l0.62,29.95l0.622,46.339
						l0.621,6.127l0.615-48.265l0.622-31.053l0.688,20.379l0.622,15.289l0.615,3.643l0.621,33.118l0.623,40.348l0.615-12.115
						l0.622-90.611l0.685-107.198l0.625-32.223l0.621,45.101l0.615,71.325l0.622,60.518l0.62,48.057l0.615,50.471l0.695,37.725
						l0.615,18.249l0.62,12.462l0.621-18.935l0.615-80.071l0.625-97.355l0.622-41.448l0.685,24.788l0.621,33.395l0.618-13.152
						l0.621-70.919l0.62-76.009l0.615-12.462l0.622,30.294l0.689,28.986l0.62,37.937l0.622,46.471l0.615,41.864l0.622,30.842
						l0.622,14.12l0.617,7.022l0.686-9.506l0.621-45.232l0.623-52.879l0.622-23.612l0.615,10.668l0.621,37.593l0.622,62.652
						l0.688,74.631l0.615,37.94l0.622-17.215l0.621-35.248l0.614-55.425l0.621-98.868l0.625-86.063l0.686,0.895l0.62,58.662
						l0.615,38.002l0.625,17.007l0.621,36.767l0.615,37.177l0.62-14.8l0.689-57.354l0.622-31.605l0.621,16.181l0.614,34.083"/>
				</g>
				<g transform="matrix(1,0,0,1,-13.4765,105.81)">
					<path fill="none" stroke="#EFEFEF" stroke-width="0.85" stroke-miterlimit="10" d="M546.452,2883.785l0.614,34.083
						l0.622,24.028l0.621-5.502l0.615-24.445l0.694-25.614l0.615-26.783l0.622-20.656l0.621,6.543l0.617,49.087l0.622,62.447
						l0.621,23.48l0.686-15.702l0.623-4.059l0.615,18.45l0.622,2.137l0.621-6.266l0.615,10.741l0.62,12.524l0.689,6.751l0.622-1.582
						l0.621-23.064l0.614-50.325l0.622-65.757l0.625-49.777l0.615-16.181l0.685,5.783l0.622,19.556l0.625,37.173l0.615,37.593
						l0.621,5.717l0.62-23.615l0.621-19.074l0.689,2.685l0.614,24.445l0.621,38.828l0.622,20.039l0.615-20.108l0.621-33.805
						l0.623-16.59l0.686,3.924l0.622,12.254l0.615-2.134l0.623-15.147l0.622,18.384l0.615,45.722l0.621,7.362l0.688-36.351
						l0.621-35.598l0.622-7.088l0.615,5.506l0.621-10.81l0.62-9.638l0.615,17.489l0.695,30.984l0.615,21.27l0.62,21.003
						l0.622,33.666l0.618,25.818l0.622-1.443l0.62-13.225l0.689,14.113l0.621,41.035l0.615,10.332l0.62-42.617l0.622-55.703
						l0.615-46.405l0.621-38.138l0.688-21.69l0.621-1.377l0.615,18.176l0.622,23.338l0.625,15.841l0.62,12.732l0.615,4.684
						l0.686-7.639l0.625-13.294l0.62-13.905l0.615-8.26l0.622,6.196l0.622,11.015l0.615,6.887l0.694,13.013l0.615,11.567
						l0.622-4.337l0.622-13.634l0.614-8.056l0.625-4.201l0.622-2.616l0.686,13.7l0.62,22.655l0.618,11.844l0.621,4.885l0.622,13.426
						l0.614,12.33l0.622-7.161l0.689-19.56l0.621-19.144l0.62-9.36l0.615,0.139l0.622-3.927l0.622-18.172"/>
				</g>
				<g transform="matrix(1,0,0,1,-13.4765,105.81)">
					<path fill="none" stroke="#EFEFEF" stroke-width="0.85" stroke-miterlimit="10" d="M609.378,2915.8l0.622-18.172l0.618-18.727
						l0.691-0.482l0.615,13.905l0.622,23.137l0.625,27.47l0.614,13.357l0.621-14.182l0.622-20.177l0.689-13.558l0.614-17.353
						l0.622,1.447l0.621,30.776l0.622,23.404l0.615-7.702l0.62-16.528l0.689-6.952l0.621-8.195l0.615-14.595l0.62-13.978
						l0.625-5.575l0.615-0.964l0.622,5.023l0.685,9.433l0.625,2.064l0.622-3.993l0.615-10.116l0.62-8.056l0.621,5.506l0.689,18.793
						l0.622,23.619l0.614,6.883l0.622-23.546l0.621-32.632l0.615,3.095l0.625,39.657l0.62,34.29l0.686,12.462l0.621,3.303
						l0.618,8.195l0.62,15.834l0.622,22.856l0.615,19.629l0.622,1.582l0.688-20.795l0.622-34.422l0.622-31.467l0.615-28.438
						l0.622-21.687l0.62-9.776l0.618-8.052l0.686-0.968l0.62,5.509l0.625,1.1l0.622-1.651l0.615-4.68l0.621-5.575l0.62-2.755
						l0.689,13.836l0.615,36.084l0.622,32.972l0.62,19.144l0.615,1.651l0.621-20.587l0.625-20.031l0.685-1.728l0.622,15.633
						l0.615,17.215l0.625,2.269l0.621-6.196l0.614-15.147l0.622-28.778l0.689-19.071l0.622,7.435l0.62,15.629l0.615,2.061
						l0.622-7.362l0.621-4.961l0.615-8.33l0.694-7.847l0.615,4.75l0.622,7.986l0.62,9.502l0.618,13.839l0.622,0.479l0.621-10.394
						l0.685-1.79l0.625,2.207l0.615,3.233l0.622,4.475l0.621-0.479l0.614-0.694l0.622-1.374l0.689,1.721l0.622,6.335l0.62-3.788
						l0.615-9.221l0.622-13.36l0.625-21.898l0.615-5.78l0.685,9.433"/>
				</g>
				<g transform="matrix(0.753398,0,0,1,41.4723,105.81)">
					<path fill="none" stroke="#EFEFEF" stroke-width="1.06" stroke-miterlimit="10" d="M819.43,2872.014l0.686,9.433l0.621-2.894
						l0.625-6.401l0.615,11.705l0.623,24.51l0.621,19.831l0.621,10.394l0.688,9.09l0.615,6.675l0.623-4.267l0.621-11.289
						l0.615-14.529l0.621-21.891l0.625-18.457l0.686,1.169l0.621,16.871l0.615,21.343l0.625,11.428l0.621-5.71l0.615-10.741
						l0.621-8.333l0.69-4.34l0.621-1.235l0.621-2.689l0.615-7.161l0.623-5.093l0.621,9.367l0.615,4.954l0.694-16.455l0.615-12.396
						l0.623,11.983l0.621,29.33l0.619,24.229l0.621,2.893l0.621-8.326l0.688-4.683l0.621,4.267l0.617,6.751l0.621-5.856
						l0.621-17.485l0.615-11.844l0.621-2.477l0.69-3.58l0.621-2.411l0.615,1.998l0.621-0.413l0.625,4.545l0.621,15.695l0.615,11.775
						l0.686-1.374l0.625,0.062l0.621,8.881l0.615,10.193l0.621,8.333l0.623-0.625l0.615-9.499l0.694-6.883l0.615-5.509l0.623-7.091
						l0.621-0.687l0.615,8.951l0.625,3.712l0.621-14.044l0.686-19.345l0.621-7.92l0.619-5.436l0.621-7.573l0.621,3.306l0.615,8.396
						l0.621,6.682l0.69,6.952l0.621,1.1l0.621-6.266l0.615-7.022l0.621,3.376l0.623,18.11l0.617,17.208l0.692,2.276l0.615-10.609
						l0.623-20.514l0.623-22.033l0.615-5.575l0.623,10.328l0.684,11.771l0.625,8.951l0.615,5.304l0.623,2.199l0.621,1.034
						l0.621-1.582l0.615,1.582l0.621,7.709l0.69,1.381l0.621-1.582l0.615,12.323l0.621,18.519l0.625,3.442l0.615-14.252
						l0.621-19.553l0.686-19.411l0.625-19.487l0.621-9.502"/>
				</g>
				<g transform="matrix(1,0,0,1,-13.4765,105.81)">
					<path fill="none" stroke="#EFEFEF" stroke-width="0.85" stroke-miterlimit="10" d="M1490.662,2927.366l0.621-3.303l0.612-0.964
						l0.689,3.164l0.622-1.304l0.621-6.952l0.615-5.71l0.621-0.971l0.622,1.582l0.621,4.066l0.686,4.337l0.615-1.651l0.622-5.093
						l0.625-3.032l0.615-1.308l0.621,2.543l0.622,5.995l0.689,4.545l0.619,3.171l0.615,3.303l0.622-1.45l0.621-7.57l0.615-6.543
						l0.621,1.443l0.689,4.614l0.621,0.555l0.622-1.79l0.612-2.547l0.625,1.582l0.621,8.673l0.615,5.093l0.692-3.372l0.618-4.267
						l0.621-0.139l0.622-0.826l0.615-4.614l0.618-2.546l0.621,0.069l0.689-1.582l0.621-1.859l0.615,1.096l0.621,1.589l0.622,1.721
						l0.618,4.954l0.618,4.337l0.686,1.173l0.622,0.548l0.618,0.763l0.621,2.13l0.621,1.381l0.622-4.545l0.615-9.367l0.686-8.399
						l0.622-2.269l0.621,3.507l0.615,5.169l0.621,5.024l0.621-0.479l0.618-3.997l0.692,0.139l0.615,2.276l0.618,0.958l0.625-1.173
						l0.615,0.625l0.621,3.851l0.621,1.728l0.689,0.617l0.622-2.276l0.615-7.362l0.622-3.171l0.618,1.381l0.615,0.756l0.621-1.173
						l0.689,0.278l0.621,3.58h0.621l0.615-1.173l0.625,0.687l0.618-0.479l0.615-0.278l0.692-0.687l0.618-1.304l0.621-2.966
						l0.622-2.269l0.615,0.205l0.621-0.961l0.621,1.1l0.686,4.475l0.615,3.789l0.621,2.546l0.621,3.372l0.622,2.068l0.618-2.137
						l0.621-3.99l0.686-3.441l0.621-1.998l0.615-0.07l0.621,1.652l0.621,0.826l0.615,0.964l0.622,4.815l0.689,4.614"/>
				</g>
				<g transform="matrix(1,0,0,1,-13.4765,105.81)">
					<path fill="none" stroke="#EFEFEF" stroke-width="0.85" stroke-miterlimit="10" d="M1553.587,2922.822l0.689,4.614l0.622-0.139
						l0.618-4.128l0.615-4.128l0.621-2.207l0.625,1.651l0.615,5.232l0.692,0.555l0.615-3.102l0.625-0.895l0.621,2.685l0.612,3.58
						l0.621,0.416l0.621,0.201l0.689-0.132l0.621-0.548l0.615,0.819l0.622-0.895l0.621-3.095l0.615-3.788l0.621-4.614l0.686-2.89
						l0.621,1.239l0.621,3.442l0.618-0.271l0.622-3.858l0.621,1.929l0.615,6.952l0.686,4.406l0.621,2.269l0.621,0.278l0.621-1.922
						l0.615-1.242l0.622-1.103l0.621-3.65l0.689-4.267l0.612-0.555l0.622,2.415l0.621,0.208l0.618,0.617l0.621,1.443l0.622-3.164
						l0.686-3.032l0.625,1.589l0.615,0.687l0.618-3.719l0.621,0.548l0.615,8.125l0.621,4.684l0.689,0.617l0.621-0.34l0.622-3.58
						l0.615-3.24l0.621-0.417l0.621,0.486l0.615-1.86l0.692-2.269l0.615,1.304l0.625,0.486l0.621,0.687l0.615,2.137l0.621-2.692
						l0.618-3.712l0.689,1.721l0.621,5.093l0.615,2.963l0.621,2.061h0.622l0.615-8.188l0.625-5.717l0.683,2.685l0.621,0.617
						l0.621-3.233l0.618-1.1l0.622,1.239l0.621,0.409l0.615,1.582l0.689,4.135l0.618,0.826l0.621-1.79l0.615,2.484l0.621,2.54
						l0.621-2.338l0.622-3.997l0.689-2.685l0.615-1.578h0.622l0.621,3.237l0.615,2.13l0.621-0.34l0.622,2.13l0.689,2.137h0.622
						l0.615,4.198l0.621,5.579l0.621-1.651l0.612-4.198l0.621,1.304l0.689,3.102l0.621-1.658l0.622-2.408"/>
				</g>
				<g transform="matrix(1,0,0,1,-13.4765,105.81)">
					<path fill="none" stroke="#EFEFEF" stroke-width="0.85" stroke-miterlimit="10" d="M1616.586,2927.366l0.622-2.408l0.615-0.278
						l0.625-1.512l0.621,0.278l0.615,1.374l0.689-3.032l0.618-4.677l0.621-1.034l0.622,2.886l0.615,2.207l0.621,0.555l0.621,0.819
						l0.686-1.443l0.621-1.512l0.615,0.617l0.621-1.582l0.622-2.748l0.618,1.645l0.621,3.379l0.686-2.345l0.621-3.92l0.615-1.582
						l0.621-2.276l0.621,0.895l0.622,6.266l0.615,7.022l0.689,2.616l0.622-0.548l0.621,0.826l0.615-1.45l0.618-1.582l0.621-1.242
						l0.618-7.292l0.692-5.096l0.615,0.826l0.622,1.239l0.625-0.826l0.615-0.687l0.621,2.408l0.618-0.139l0.689,0.625l0.621,4.822
						l0.615,0.617l0.622-1.859l0.621-0.756l0.615-0.826l0.621,0.888l0.686,2.345l0.621,1.374l0.621-1.922l0.615-3.101l0.625,1.103
						l0.621,0.687l0.615-2.616l0.692,0.132l0.615,0.076l0.621-1.721l0.622,1.235l0.615,1.651l0.622-2.886l0.621-3.858l0.689,2.748
						l0.615,3.58l0.621-1.027l0.618,1.103l0.621,2.893l0.619,1.166l0.621,1.103l0.686,2.685l0.625-0.139l0.615-7.161l0.621-3.858
						l0.618,3.31l0.615,1.235l0.621-1.235l0.689,0.069l0.622-0.486l0.621-1.721l0.615-0.409l0.621-0.347l0.625-2.685l0.612-0.552
						l0.692,3.098l0.615,1.173l0.625-0.555l0.621,1.103l0.615-0.965l0.621-0.687l0.621,4.885l0.686,4.274h0.621l0.615,0.687
						l0.622,2.616l0.621-0.826l0.615-2.477l0.625,1.859l0.686-0.278l0.621-4.822l0.618-2.824l0.618,0.278l0.622,0.826"/>
				</g>
				<g transform="matrix(1,0,0,1,-13.4765,105.81)">
					<path fill="none" stroke="#EFEFEF" stroke-width="0.85" stroke-miterlimit="10" d="M1679.514,2916.833l0.622,0.826l0.621-0.201
						l0.615,1.166l0.689,1.103l0.621-1.304l0.621,1.714l0.622,1.173l0.612-3.65h0.622l0.621,3.997l0.689,0.965l0.615-2.547
						l0.621-2.276l0.621-0.069l0.618,1.312l0.618,2.061l0.622-0.687l0.686-4.892l0.625-2.678l0.615,2.061l0.621,1.443l0.621,0.625
						l0.615,1.86l0.618,0.069l0.689-1.721l0.621,2.824l0.622,5.641l0.615,0.617l0.621-2.886l0.625-1.998l0.615-1.651l0.689,0.479
						l0.615,3.372l0.625-0.271l0.622-7.431l0.615-3.379l0.621,4.684l0.621,2.199l0.689,0.278l0.621,1.513l0.612-0.826l0.621-1.381
						l0.622,1.998l0.615,2.415l0.625-2.824l0.686-3.094l0.621,2.408l0.621,1.721l0.618-0.069l0.618-0.278l0.622-2.477l0.615-0.756
						l0.689,1.374l0.622,1.721l0.621-0.895l0.615-2.685l0.621,1.859l0.618,0.625l0.622-1.929l0.689,1.79l0.615,0.34l0.622-3.65
						l0.625-1.79l0.615,1.866l0.621,0.34l0.622-2.206l0.686,0.895l0.622,1.034l0.615-0.548l0.622,1.998l0.621,0.548l0.615-2.817
						l0.621-1.589l0.689,1.79l0.618-1.311l0.621-5.024l0.615,1.308l0.625,1.856l0.621-1.096l0.615,2.616l0.692,2.956l0.618,0.416
						l0.621-1.103l0.619,0.416l0.615,1.311h0.622l0.621,1.922l0.689-1.381l0.621-5.71l0.615,1.45l0.621,5.023l0.618-1.173
						l0.619-3.164l0.621-0.486l0.686,1.034l0.622,0.895l0.618,4.205l0.621,3.303l0.621-5.718l0.622-4.059l0.612,5.572"/>
				</g>
				<g transform="matrix(1,0,0,1,-13.4765,105.81)">
					<path fill="none" stroke="#EFEFEF" stroke-width="0.85" stroke-miterlimit="10" d="M1742.448,2914.564l0.612,5.572l0.689,4.753
						l0.622-1.513l0.621-3.372l0.615-1.929l0.621,2.199l0.621,5.579l0.618,4.066l0.689-2.685l0.615-6.196l0.621-0.555l0.625,1.86
						l0.615-0.416l0.621,0.756l0.621-0.201l0.689-0.486l0.618,1.311l0.615-0.271l0.622-2.692l0.621-4.337l0.615-0.409l0.621,2.338
						l0.689,0.895l0.621,3.233l0.622,0.694l0.612-3.303l0.625-0.416l0.621,2.269l0.615,1.651l0.692-1.304l0.618-1.582h0.621
						l0.622-0.486l0.612,0.347l0.622-0.479l0.621-1.658l0.689-0.416l0.615,1.242l0.621,1.173l0.621-0.833l0.622,0.902l0.618-0.278
						l0.618-4.337l0.686-1.998l0.625-0.687l0.615-0.208l0.621,1.52l0.621,1.235l0.615,0.763l0.622,1.027l0.686,3.719l0.621,2.616
						l0.622-2.546l0.615-1.651l0.621,1.304l0.625,1.859l0.615,0.34l0.692,0.971l0.612,2.685l0.625-1.859l0.621-3.24l0.615-1.721
						l0.621-2.748l0.621,0.479l0.689,2.546l0.621,1.513l0.615-0.208l0.618-2.616l0.622-2.886l0.615-1.173l0.625,1.929l0.686,1.859
						l0.621-1.651h0.621l0.618,2.13h0.622l0.618-1.512l0.615-0.826l0.689-1.652l0.621-1.381l0.621,3.858l0.621,6.127l0.615,0.617
						l0.622-3.781l0.621-2.276l0.686,0.486l0.615,0.479l0.622-0.347l0.621-0.34l0.618-0.826l0.621-0.278l0.622,2.415l0.683,1.721
						l0.625,0.617l0.615,1.242l0.621-0.971l0.621-0.888l0.615,0.548l0.621-1.721l0.689-3.927l0.621-1.998"/>
				</g>
				<g transform="matrix(1,0,0,1,-13.4765,105.81)">
					<path fill="none" stroke="#EFEFEF" stroke-width="0.85" stroke-miterlimit="10" d="M1805.441,2915.938l0.621-1.998l0.619,2.484
						l0.615,1.304l0.622-0.069l0.625,0.486l0.615-0.964l0.692,2.137l0.615,4.337l0.625,1.651l0.618-2.963l0.615-4.753l0.621-0.132
						l0.621,0.756l0.689,0.271l0.621,2.276l0.615,0.548l0.621-2.13l0.622,0.895l0.615,4.469l0.621,0.278l0.686-2.616l0.621-0.479
						l0.621-0.625l0.618-0.479l0.622-0.208l0.621-3.99l0.615-5.579l0.686,0.479l0.622,5.169l0.621,3.303l0.615,0.756l0.621-0.208
						l0.621-1.381l0.622-0.958l0.689,0.278l0.612-1.312l0.622-3.094l0.625-2.137l0.615,1.443l0.621,1.929l0.622,0.409l0.689,0.076
						l0.622-2.831l0.615-2.269l0.618,2.616l0.621,3.233l0.615,1.312l0.621,1.103l0.689,1.79l0.621,0.756l0.622-0.548l0.615,1.513
						l0.622,1.103l0.621-2.546l0.615-1.589l0.692,0.076l0.618-2.824l0.621-4.822l0.622-1.998l0.615,3.303l0.621,4.274l0.618,1.443
						l0.689-0.548l0.621-1.929l0.615,0.416l0.621,1.512l0.622-2.068l0.618,0.347l0.621,4.337l0.683,0.479l0.622-3.164l0.618-0.964
						l0.621,1.173l0.621-0.486l0.622-0.548l0.615,5.232l0.689,5.024l0.618-0.409l0.622-0.895l0.615-2.893l0.621-3.032l0.621,1.45
						l0.618,3.025l0.692,0.826l0.615-2.061l0.622-2.477l0.621-5.162l0.615-5.239l0.621,3.442l0.621,5.301l0.689-0.139l0.622,0.347
						l0.615,2.199l0.622,0.756l0.621-1.166l0.615-2.338l0.618-2.207l0.689-1.312l0.621,1.589l0.621,1.374l0.615-2.061"/>
				</g>
				<g transform="matrix(1,0,0,1,-13.4765,105.81)">
					<path fill="none" stroke="#EFEFEF" stroke-width="0.85" stroke-miterlimit="10" d="M1868.372,2918.485l0.615-2.061l0.625-0.763
						l0.621,0.971l0.615-0.139l0.689-0.486l0.618,2.477l0.621,2.616l0.622-1.783l0.615,0.819l0.622,3.24l0.621-0.833l0.686-2.54
						l0.615-1.721l0.621-0.902l0.621-2.886l0.621-0.964l0.619,1.79l0.621-1.651l0.686-0.208l0.625,3.032l0.612,2.547l0.621,2.338
						l0.621,1.242l0.615-0.965l0.621-2.553l0.689,1.52l0.622,4.129l0.621-2.408l0.615-3.164l0.618,0.34l0.625-2.137l0.615-2.199
						l0.692,0.826l0.615,1.173l0.625,0.617l0.621,4.198l0.615,3.997l0.621-4.267l0.618-5.377l0.689-0.132l0.621-0.278l0.615-1.034
						l0.622,1.998l0.621,1.173l0.615-4.274l0.625-0.34l0.683,5.162l0.621-1.166l0.621-2.824l0.618,1.922l0.622,1.242l0.621-0.756
						l0.615-0.409l0.689-0.139l0.618-3.032l0.621-2.064l0.621,2.272l0.615,0.208l0.622-0.902l0.621,2.345l0.689,1.374l0.615-1.173
						l0.621,1.658l0.618,4.746l0.618,0.555l0.621-3.858l0.622-1.512l0.686-0.347l0.625-1.513l0.615,1.929l0.621,0.687l0.621-3.858
						l0.612,0.555l0.621,6.057l0.689,2.137l0.621-3.719l0.622-1.45l0.615-0.756l0.621-2.893l0.625,1.242l0.612,2.546l0.692-2.824
						l0.615-2.546l0.625,2.893l0.622,2.685l0.615,0.278l0.621,1.651l0.621,2.755l0.686,0.201l0.621,0.347l0.615,2.199l0.621-1.853
						l0.622-3.789l0.615-0.625l0.625-2.13l0.686-2.824l0.621,2.137l0.618,4.059l0.618-0.548l0.621-2.338l0.622,1.644"/>
				</g>
				<g transform="matrix(1,0,0,1,-13.4765,105.81)">
					<path fill="none" stroke="#EFEFEF" stroke-width="0.85" stroke-linecap="round" stroke-linejoin="round" d="M4.355,2917.333
						c0.569,0-0.532-4.711,0-4.711c1.814,0,1.223,3.851,4.003,3.851c1.315,0-0.362-2.026,0-2.026c0.02,0,0.874,2.886,2.934,2.886
						c1.438,0-0.665-4.711,0-4.711c0,0,1.405,4.274,3.244,4.274c0.235,0-1.411-1.173,0-1.173c1.811,0,3.243,1.61,3.243,1.61
						c1.438,0-0.455-4.711,0-4.711c0,0-0.034,4.711,2.678,4.711c1.437,0-1.438-4.711,0-4.711c1.875,0-1.46,4.711,0.941,4.711
						c1.438,0-0.928-4.711,0-4.711c0,0,2.66,4.711,2.766,4.711c1.108,0-1.071-4.711,0-4.711c0.631,0,0.108,4.711,0.334,4.711
						c0.851,0,0-4.711,0-4.711c1.634,0,0.854,2.359,2.617,2.359c1.438,0-1.092-0.777,0-0.777c1.928,0,1.615,3.129,2.255,3.129
						c1.438,0-1.438-4.711,0-4.711c0,0,1.135,4.711,3.697,4.711c1.389,0-1.038-4.711,0-4.711c1.235,0,2.784,2.65,3.481,2.65
						c0.72,0-1.438-1.908,0-1.908c1.301,0,1.695,1.318,2.243,1.318c1.354,0-0.62-1.596,0-1.596c2.183,0-1.158,4.246,1.023,4.246
						c0.257,0,0-4.711,0-4.711c2.289,0,1.148,4.711,1.148,4.711c1.192,0-0.226-4.711,0-4.711c1.223,0,4.292,4.711,4.292,4.711
						c0.848,0-0.248-4.711,0-4.711c1.846,0,0.2,4.711,2.987,4.711c0.155,0-1.438-4.711,0-4.711c2.101,0-1.971,4.711,0.242,4.711
						c1.285,0-1.435-4.711,0-4.711c2.494,0-0.857,4.711,1.637,4.711v-4.711c2.892,0,2.806,4.711,3.357,4.711
						c1.283,0-0.645-4.711,0-4.711c1.2,0,1.252,4.711,4.514,4.711c1.02,0-0.948-4.711,0-4.711c2.369,0-0.588,4.711,0.432,4.711
						c1.105,0-1.441-4.711,0-4.711c0.969,0-1.417,4.711,0.991,4.711c1.438,0-1.438-4.711,0-4.711c0,0,4.229,2.387,4.452,2.387
						c0,0-1.438-2.311,0-2.311c0,0,0.835,4.635,2.518,4.635c0.272,0-1.437-4.711,0-4.711c2.831,0,3.14,4.711,3.14,4.711
						c0.891,0-0.768-4.711,0-4.711c2.029,0,0.432,4.711,2.475,4.711c0.408,0-0.214-4.711,0-4.711c2.632,0-0.275,4.711,2.36,4.711
						c0,0-0.875-4.711,0-4.711c2.611,0,1.435,4.711,2.249,4.711c0.885,0-1.435-4.711,0-4.711c1.218,0,3.158,4.711,4.464,4.711
						c0.572,0-1.438-4.711,0-4.711c0.805,0-1.832,4.711,0.538,4.711c1.438,0-0.771-4.711,0-4.711c2.014,0,0.525,4.711,2.017,4.711
						c0,0-0.542-4.711,0-4.711c0,0,1.763,3.164,4.095,3.164c0.152,0-0.457-2.977,0-2.977c0.941,0,1.061,1.277,1.389,1.277
						c1.438,0-1.438-1.381,0-1.381c2.123,0,2.781,4.628,4.001,4.628c0.912,0-1.434-4.711,0-4.711c0.775,0,1.148,4.711,4.15,4.711
						c1.438,0-1.132-4.711,0-4.711c0,0,1.241,4.711,1.771,4.711c0,0-0.755-4.711,0-4.711c0.303,0,2.446,1.207,4.355,1.207
						c0.572,0,0-0.673,0-0.673c1.628,0-0.337,4.177,1.249,4.177c0.155,0-0.961-4.711,0-4.711c0.208,0,4.118,4.711,4.304,4.711
						c0,0-0.523-4.711,0-4.711c3.054,0,4.177,4.711,4.177,4.711c0.031,0,0-4.711,0-4.711c2.464,0,1.166,4.711,1.426,4.711
						c0.597,0-0.186-4.711,0-4.711c0,0-1.077,4.711,0.328,4.711c0.166,0-1.438-4.711,0-4.711c0,0,1.114,4.711,4.306,4.711
						c0.845,0-1.441-4.711,0-4.711c1.566,0,1.781,4.711,2.831,4.711c1.438,0-1.438-4.711,0-4.711c0.869,0,1.478,3.427,4.18,3.427
						c0,0-1.435-1.658,0-1.658c1.145,0,1.132,2.942,1.231,2.942v-4.711c1.523,0,0.348,3.046,0.814,3.046c0,0-0.117-1.658,0-1.658
						c0.125,0-0.817,3.323,0.906,3.323c0,0-0.711-4.711,0-4.711c0,0,0.015,4.711,2.175,4.711c1.272,0-1.435-4.711,0-4.711
						c1.068,0,0.418,4.656,1.163,4.656c1.438,0-0.405-4.406,0-4.406c0.357,0-1.352,4.24,0.34,4.24c0.975,0-1.438-3.511,0-3.511
						c2.386,0,0.58,3.733,2.964,3.733c0.869,0-0.885-4.711,0-4.711c0.465,0,1.683,4.711,1.683,4.711c1.438,0-1.42-4.711,0-4.711
						c2.561,0,4.006,3.206,4.006,3.206c1.438,0-0.811-0.715,0-0.715c1.501,0,1.903,1.589,2.552,1.589c1.003,0,0-3.102,0-3.102
						c0.758,0,3.852,3.733,3.852,3.733s-0.937-4.711,0-4.711c2.775,0,0.878,4.711,2.926,4.711v-4.711c0,0,1.795,2.269,2.744,2.269
						c0.981,0-0.346-0.146,0-0.146c1.411,0-0.294,2.588,1.114,2.588c0.434,0-1.438-4.711,0-4.711c0,0,2.069,4.711,3.574,4.711
						v-4.711c2.363,0-1.432,4.711,0.355,4.711c1.438,0-1.438-4.711,0-4.711c0.263,0-0.845,4.711,1.649,4.711
						c0.946,0-0.814-4.711,0-4.711c0,0,0.591,4.441,3.329,4.441c1.438,0-1.438-3.865,0-3.865c1.268,0,2.546,4.135,4.486,4.135
						c1.438,0,0-4.711,0-4.711c1.481,0,0.974,3.053,1.466,3.053c1.438,0-0.062-1.853,0-1.853c1.2,0,0.652,3.511,1.454,3.511
						c1.438,0-1.083-4.711,0-4.711c3.011,0,1.398,4.711,3.755,4.711c1.321,0,0-4.711,0-4.711c2.568,0,0.926,4.711,4.023,4.711
						c1.438,0,0-4.711,0-4.711c2.044,0,2.611,4.711,2.806,4.711c0.72,0-1.437-4.711,0-4.711c0.12,0,0.661,0.52,0.661,0.52
						c0.235,0-1.438-0.271,0-0.271c0,0,1.661,2.963,4.25,2.963c1.438,0-0.392-1.63,0-1.63c1.534,0,1.512-0.375,3.044-0.375
						c1.438,0-1.438-0.18,0-0.18c0.492,0-0.7,2.935,0.823,2.935c1.008,0-1.438-1.651,0-1.651c0,0,3.3,2.401,4.569,2.401
						c0,0-1.209-4.711,0-4.711c2.432,0-0.471,4.455,1.964,4.455c1.058,0,0-2.803,0-2.803s1.258-1.173,2.023-1.173
						c0,0-1.438-0.243,0-0.243c0.703,0,2.023,4.198,3.478,4.198c1.438,0-1.437-0.243,0-0.243c0.9,0,2.155,0.52,3.96,0.52
						c0,0-1.437-4.711,0-4.711c0.154,0-1.018,4.323,1.231,4.323c1.438,0,0-2.824,0-2.824c0.012,0-1,3.212,0.634,3.212
						c1.441,0,0-4.711,0-4.711c2.221,0,1.652,4.087,1.732,4.087c0,0-1.265-1.61,0-1.61c0.171,0,1.545,2.234,1.729,2.234
						c0.638,0-1.305-4.711,0-4.711c2.606,0,2.288,4.385,2.826,4.385c1.441,0-1.434-2.068,0-2.068c0.585,0-0.468,1.811,0.268,1.811
						c1.437,0-0.222-3.4,0-3.4c2.701,0,0.948,3.983,3.651,3.983c0.551,0-0.278-4.711,0-4.711c2.141,0,1.615,4.711,3.714,4.711
						c1.438,0-1.438-4.711,0-4.711c1.911,0,3.777,1.637,3.777,1.637c1.046,0-0.068-0.187,0-0.187c0.848,0,0.677,2.109,2.197,2.109
						c1.225,0-1.435-0.208,0-0.208c1.494,0,1.463-0.416,2.954-0.416c0.78,0-0.742-2.713,0-2.713"/>
				</g>
			</g>
			<g transform="matrix(7.71923,0,0,7.71923,-2806.35,-947.433)">
				<g id="Logo">
					
						<text id="PNSN" transform="matrix(0.4081 0 0 0.4081 449.1391 339.0358)" fill="#EBEBEB" font-family="'ArialMT'" font-size="97.2556">PNSN</text>
				</g>
			</g>
			<g id="Subtitle" transform="matrix(1.85262,0,0,1.81114,-687.432,-231.603)">
				<text transform="matrix(1.7395 0 0 1.7395 654.2048 1092.7681)" fill="#EFEFEF" font-family="'ArialMT'" font-size="23.6174">paciﬁc northwest seismic network</text>
			</g>
		</g>
	</g>
</g>
</svg>
