<?xml version="1.0" encoding="utf-8"?>
<!-- Generator: Adobe Illustrator 16.0.4, SVG Export Plug-In . SVG Version: 6.00 Build 0)  -->
<!DOCTYPE svg PUBLIC "-//W3C//DTD SVG 1.1//EN" "http://www.w3.org/Graphics/SVG/1.1/DTD/svg11.dtd">
<svg version="1.1" id="Layer_1" xmlns="http://www.w3.org/2000/svg" xmlns:xlink="http://www.w3.org/1999/xlink" x="0px" y="0px"
	 width="200px" height="54px" viewBox="0 0 200 54" enable-background="new 0 0 200 54" xml:space="preserve">
<rect width="200" height="54"/>
<polygon fill="#FFFFFF" stroke="#FFFFFF" points="3,7 3,19.03 7.011,19.03 7.011,39.031 15.032,47 34.981,47 43,39.031 43,19.03 
	47.012,19.03 47.012,7 27.011,7 27.011,19.03 31.024,19.03 31.024,34.971 18.991,34.971 18.991,19.03 23.001,19.03 23.001,7 "/>
<g>
	<g>
		<path fill="#FFFFFF" d="M61.757,8.991v5.905c0,1.766,0.669,2.664,1.856,2.664c1.218,0,1.888-0.853,1.888-2.664V8.991h2.313v5.753
			c0,3.166-1.599,4.672-4.277,4.672c-2.587,0-4.109-1.431-4.109-4.703V8.991H61.757z"/>
		<path fill="#FFFFFF" d="M69.748,14.181c0-0.928-0.031-1.72-0.061-2.374h2.009l0.106,1.02h0.045
			c0.304-0.473,1.065-1.187,2.299-1.187c1.521,0,2.663,1.004,2.663,3.196v4.414h-2.313v-4.125c0-0.959-0.335-1.613-1.172-1.613
			c-0.639,0-1.02,0.441-1.172,0.867c-0.06,0.137-0.091,0.366-0.091,0.579v4.292h-2.313V14.181z"/>
		<path fill="#FFFFFF" d="M81.057,9.737c0,0.639-0.487,1.157-1.248,1.157c-0.731,0-1.218-0.518-1.203-1.157
			c-0.015-0.669,0.472-1.172,1.217-1.172C80.569,8.565,81.041,9.067,81.057,9.737z M78.667,19.249v-7.442h2.313v7.442H78.667z"/>
		<path fill="#FFFFFF" d="M84.557,11.807l1.004,3.454c0.183,0.625,0.32,1.218,0.427,1.812h0.045
			c0.122-0.609,0.244-1.172,0.411-1.812l0.958-3.454h2.435l-2.77,7.442h-2.313l-2.709-7.442H84.557z"/>
		<path fill="#FFFFFF" d="M92.456,16.266c0.076,0.958,1.02,1.415,2.101,1.415c0.791,0,1.431-0.106,2.054-0.304l0.305,1.568
			c-0.761,0.304-1.69,0.457-2.694,0.457c-2.526,0-3.972-1.461-3.972-3.79c0-1.887,1.171-3.972,3.759-3.972
			c2.405,0,3.318,1.872,3.318,3.713c0,0.396-0.046,0.746-0.077,0.914L92.456,16.266L92.456,16.266z M95.181,14.683
			c0-0.563-0.244-1.506-1.309-1.506c-0.974,0-1.37,0.883-1.431,1.506H95.181z"/>
		<path fill="#FFFFFF" d="M98.712,14.257c0-1.095-0.031-1.811-0.061-2.45h1.996l0.074,1.369h0.062
			c0.38-1.081,1.294-1.537,2.008-1.537c0.214,0,0.32,0,0.486,0.03v2.177c-0.166-0.031-0.364-0.061-0.623-0.061
			c-0.853,0-1.432,0.457-1.582,1.172c-0.031,0.153-0.047,0.335-0.047,0.518v3.774h-2.312L98.712,14.257L98.712,14.257z"/>
		<path fill="#FFFFFF" d="M104.48,17.225c0.426,0.259,1.31,0.563,1.992,0.563c0.701,0,0.99-0.244,0.99-0.624
			s-0.229-0.563-1.096-0.852c-1.537-0.518-2.131-1.355-2.116-2.238c0-1.385,1.188-2.435,3.028-2.435
			c0.867,0,1.646,0.197,2.101,0.426l-0.409,1.597c-0.336-0.182-0.976-0.426-1.613-0.426c-0.563,0-0.885,0.229-0.885,0.609
			c0,0.35,0.289,0.532,1.203,0.853c1.415,0.486,2.01,1.202,2.024,2.298c0,1.385-1.097,2.405-3.228,2.405
			c-0.974,0-1.842-0.213-2.404-0.517L104.48,17.225z"/>
		<path fill="#FFFFFF" d="M113.491,9.737c0,0.639-0.487,1.157-1.248,1.157c-0.731,0-1.218-0.518-1.203-1.157
			c-0.015-0.669,0.472-1.172,1.218-1.172S113.477,9.067,113.491,9.737z M111.102,19.249v-7.442h2.312v7.442H111.102z"/>
		<path fill="#FFFFFF" d="M117.859,9.676v2.131h1.658v1.704h-1.658v2.693c0,0.899,0.211,1.309,0.912,1.309
			c0.289,0,0.519-0.03,0.686-0.061l0.016,1.75c-0.305,0.122-0.853,0.198-1.507,0.198c-0.745,0-1.37-0.258-1.735-0.639
			c-0.426-0.442-0.64-1.157-0.64-2.207V13.51h-0.989v-1.704h0.989v-1.614L117.859,9.676z"/>
		<path fill="#FFFFFF" d="M122.668,11.807l1.111,3.652c0.121,0.441,0.272,0.989,0.365,1.384h0.045
			c0.106-0.395,0.229-0.958,0.334-1.384l0.914-3.652h2.48l-1.734,4.9c-1.064,2.953-1.781,4.14-2.617,4.886
			c-0.808,0.7-1.659,0.943-2.236,1.02l-0.488-1.964c0.29-0.045,0.654-0.182,1.006-0.395c0.35-0.183,0.729-0.548,0.959-0.929
			c0.075-0.106,0.12-0.228,0.12-0.335c0-0.076-0.016-0.198-0.106-0.38l-2.725-6.803H122.668z"/>
		<path fill="#FFFFFF" d="M139.318,15.444c0,2.725-1.932,3.973-3.926,3.973c-2.177,0-3.852-1.431-3.852-3.835
			c0-2.405,1.583-3.942,3.973-3.942C137.797,11.64,139.318,13.207,139.318,15.444z M133.934,15.52c0,1.278,0.531,2.237,1.521,2.237
			c0.899,0,1.478-0.897,1.478-2.237c0-1.111-0.427-2.237-1.478-2.237C134.343,13.283,133.934,14.424,133.934,15.52z"/>
		<path fill="#FFFFFF" d="M141.01,19.249v-5.738h-0.976v-1.704h0.976v-0.29c0-0.898,0.273-1.888,0.943-2.496
			c0.578-0.548,1.385-0.746,2.055-0.746c0.518,0,0.913,0.062,1.232,0.153l-0.092,1.78c-0.197-0.061-0.44-0.107-0.746-0.107
			c-0.762,0-1.08,0.594-1.08,1.325v0.38h1.492v1.704h-1.478v5.738L141.01,19.249L141.01,19.249z"/>
		<path fill="#FFFFFF" d="M151.404,8.991v5.905c0,1.766,0.67,2.664,1.857,2.664c1.217,0,1.887-0.853,1.887-2.664V8.991h2.313v5.753
			c0,3.166-1.601,4.672-4.276,4.672c-2.588,0-4.11-1.431-4.11-4.703V8.991H151.404z"/>
		<path fill="#FFFFFF" d="M161.982,9.676v2.131h1.658v1.704h-1.658v2.693c0,0.899,0.213,1.309,0.912,1.309
			c0.289,0,0.519-0.03,0.687-0.061l0.015,1.75c-0.305,0.122-0.853,0.198-1.507,0.198c-0.745,0-1.37-0.258-1.733-0.639
			c-0.428-0.442-0.642-1.157-0.642-2.207V13.51h-0.987v-1.704h0.987v-1.614L161.982,9.676z"/>
		<path fill="#FFFFFF" d="M169.212,19.249l-0.137-0.745h-0.046c-0.487,0.593-1.248,0.913-2.131,0.913
			c-1.506,0-2.404-1.096-2.404-2.283c0-1.932,1.734-2.861,4.367-2.846v-0.106c0-0.396-0.213-0.959-1.354-0.959
			c-0.762,0-1.568,0.259-2.055,0.563l-0.428-1.492c0.519-0.289,1.537-0.654,2.893-0.654c2.48,0,3.273,1.46,3.273,3.21v2.587
			c0,0.715,0.029,1.401,0.104,1.812H169.212z M168.938,15.733c-1.217-0.015-2.16,0.275-2.16,1.172c0,0.594,0.396,0.883,0.914,0.883
			c0.578,0,1.05-0.38,1.201-0.852c0.03-0.122,0.045-0.259,0.045-0.396V15.733L168.938,15.733z"/>
		<path fill="#FFFFFF" d="M173.018,8.443h2.313v4.246h0.03c0.242-0.319,0.548-0.563,0.912-0.761
			c0.336-0.182,0.776-0.288,1.203-0.288c1.477,0,2.604,1.02,2.604,3.256v4.353h-2.314v-4.094c0-0.974-0.334-1.644-1.201-1.644
			c-0.609,0-0.989,0.396-1.157,0.807c-0.062,0.152-0.075,0.35-0.075,0.518v4.414h-2.312V8.443H173.018z"/>
	</g>
	<g>
		<path fill="#FFFFFF" d="M50.274,40.704c0.624,0.319,1.583,0.642,2.572,0.642c1.066,0,1.629-0.443,1.629-1.113
			c0-0.64-0.487-1.004-1.72-1.445c-1.705-0.594-2.816-1.536-2.816-3.028c0-1.75,1.461-3.09,3.881-3.09
			c1.157,0,2.009,0.244,2.618,0.519l-0.517,1.873c-0.412-0.199-1.142-0.488-2.146-0.488s-1.491,0.457-1.491,0.988
			c0,0.656,0.578,0.943,1.902,1.446c1.811,0.67,2.664,1.613,2.664,3.06c0,1.72-1.324,3.183-4.14,3.183
			c-1.171,0-2.329-0.306-2.907-0.624L50.274,40.704z"/>
		<path fill="#FFFFFF" d="M60.228,40.111c0.077,0.957,1.02,1.416,2.101,1.416c0.792,0,1.431-0.107,2.055-0.307l0.305,1.567
			c-0.761,0.306-1.689,0.458-2.694,0.458c-2.526,0-3.972-1.463-3.972-3.791c0-1.887,1.172-3.973,3.759-3.973
			c2.405,0,3.318,1.873,3.318,3.715c0,0.395-0.045,0.744-0.076,0.914H60.228L60.228,40.111z M62.952,38.527
			c0-0.562-0.244-1.506-1.309-1.506c-0.974,0-1.37,0.883-1.431,1.506H62.952z"/>
		<path fill="#FFFFFF" d="M68.873,33.582c0,0.639-0.487,1.157-1.248,1.157c-0.731,0-1.218-0.521-1.203-1.157
			c-0.015-0.67,0.472-1.172,1.217-1.172C68.386,32.41,68.858,32.912,68.873,33.582z M66.483,43.096V35.65h2.313v7.443h-2.313V43.096
			z"/>
		<path fill="#FFFFFF" d="M70.639,41.068c0.426,0.261,1.309,0.564,1.994,0.564c0.7,0,0.989-0.244,0.989-0.624
			c0-0.381-0.229-0.565-1.096-0.853c-1.537-0.521-2.131-1.355-2.116-2.237c0-1.386,1.187-2.437,3.029-2.437
			c0.867,0,1.644,0.199,2.101,0.427l-0.411,1.598c-0.335-0.183-0.974-0.426-1.613-0.426c-0.563,0-0.883,0.228-0.883,0.608
			c0,0.351,0.289,0.531,1.202,0.854c1.416,0.484,2.009,1.201,2.024,2.297c0,1.387-1.096,2.406-3.227,2.406
			c-0.974,0-1.842-0.214-2.405-0.52L70.639,41.068z"/>
		<path fill="#FFFFFF" d="M77.259,38.025c0-0.928-0.031-1.719-0.061-2.375h1.948l0.106,1.004h0.046
			c0.319-0.471,0.974-1.17,2.252-1.17c0.959,0,1.72,0.486,2.04,1.263h0.03c0.274-0.381,0.609-0.685,0.959-0.897
			c0.411-0.244,0.868-0.365,1.415-0.365c1.431,0,2.512,1.006,2.512,3.228v4.384h-2.252v-4.049c0-1.08-0.35-1.705-1.096-1.705
			c-0.533,0-0.914,0.365-1.065,0.807c-0.061,0.168-0.092,0.41-0.092,0.594v4.354h-2.252v-4.17c0-0.945-0.335-1.584-1.065-1.584
			c-0.594,0-0.944,0.456-1.081,0.838c-0.077,0.182-0.092,0.396-0.092,0.577v4.339h-2.252V38.025z"/>
		<path fill="#FFFFFF" d="M97.7,39.289c0,2.725-1.933,3.972-3.927,3.972c-2.176,0-3.851-1.431-3.851-3.835
			c0-2.402,1.583-3.941,3.972-3.941C96.178,35.484,97.7,37.052,97.7,39.289z M92.312,39.364c0,1.278,0.533,2.237,1.521,2.237
			c0.898,0,1.477-0.897,1.477-2.237c0-1.109-0.426-2.237-1.477-2.237C92.723,37.127,92.312,38.27,92.312,39.364z"/>
		<path fill="#FFFFFF" d="M106.284,35.65c-0.03,0.472-0.062,1.097-0.062,2.207v4.154c0,1.432-0.289,2.604-1.127,3.35
			c-0.82,0.699-1.933,0.914-3.027,0.914c-0.976,0-2.009-0.198-2.679-0.58l0.457-1.75c0.472,0.275,1.294,0.563,2.161,0.563
			c1.095,0,1.935-0.595,1.935-1.964v-0.484h-0.032c-0.438,0.623-1.155,0.974-2.009,0.974c-1.841,0-3.15-1.492-3.15-3.638
			c0-2.391,1.552-3.912,3.379-3.912c1.02,0,1.658,0.441,2.039,1.051h0.029l0.078-0.885H106.284L106.284,35.65z M103.909,38.682
			c0-0.152-0.015-0.306-0.046-0.427c-0.166-0.61-0.608-1.021-1.247-1.021c-0.839,0-1.522,0.761-1.522,2.115
			c0,1.11,0.549,1.979,1.522,1.979c0.594,0,1.065-0.396,1.218-0.943c0.062-0.169,0.075-0.413,0.075-0.608V38.682z"/>
		<path fill="#FFFFFF" d="M108.081,38.104c0-1.098-0.031-1.812-0.062-2.453h1.994l0.075,1.373h0.062
			c0.379-1.082,1.293-1.539,2.01-1.539c0.213,0,0.318,0,0.486,0.029v2.178c-0.168-0.03-0.367-0.061-0.625-0.061
			c-0.852,0-1.431,0.455-1.582,1.171c-0.029,0.152-0.047,0.335-0.047,0.519v3.775h-2.312V38.104z"/>
		<path fill="#FFFFFF" d="M117.93,43.096l-0.139-0.748h-0.046c-0.486,0.596-1.247,0.913-2.132,0.913
			c-1.506,0-2.403-1.096-2.403-2.282c0-1.933,1.735-2.861,4.368-2.847v-0.106c0-0.395-0.213-0.957-1.354-0.957
			c-0.762,0-1.567,0.258-2.056,0.562l-0.426-1.492c0.519-0.289,1.536-0.654,2.892-0.654c2.481,0,3.271,1.461,3.271,3.211v2.589
			c0,0.716,0.031,1.399,0.107,1.812H117.93L117.93,43.096z M117.654,39.579c-1.219-0.017-2.161,0.272-2.161,1.171
			c0,0.596,0.396,0.884,0.914,0.884c0.577,0,1.049-0.381,1.2-0.854c0.031-0.119,0.047-0.256,0.047-0.394V39.579z"/>
		<path fill="#FFFFFF" d="M121.734,38.146c0-0.975-0.032-1.812-0.062-2.496h2.01l0.105,1.037h0.031
			c0.547-0.793,1.397-1.203,2.479-1.203c1.629,0,3.09,1.414,3.09,3.789c0,2.709-1.719,3.986-3.378,3.986
			c-0.897,0-1.6-0.363-1.934-0.852h-0.03v3.697h-2.312v-7.959H121.734z M124.047,39.896c0,0.184,0.016,0.353,0.046,0.488
			c0.152,0.624,0.687,1.096,1.354,1.096c1.005,0,1.598-0.838,1.598-2.101c0-1.188-0.531-2.085-1.566-2.085
			c-0.654,0-1.232,0.487-1.386,1.171c-0.03,0.123-0.046,0.273-0.046,0.41V39.896z"/>
		<path fill="#FFFFFF" d="M130.836,32.287h2.312v4.247h0.031c0.242-0.318,0.547-0.562,0.912-0.761
			c0.335-0.184,0.776-0.289,1.202-0.289c1.478,0,2.604,1.019,2.604,3.256v4.354h-2.314V39c0-0.975-0.335-1.643-1.202-1.643
			c-0.608,0-0.987,0.394-1.157,0.807c-0.061,0.15-0.074,0.35-0.074,0.518v4.414h-2.313L130.836,32.287L130.836,32.287z"/>
		<path fill="#FFFFFF" d="M142.98,40.704c0.623,0.319,1.582,0.642,2.571,0.642c1.065,0,1.63-0.443,1.63-1.113
			c0-0.64-0.488-1.004-1.721-1.445c-1.704-0.594-2.814-1.536-2.814-3.028c0-1.75,1.461-3.09,3.881-3.09
			c1.156,0,2.009,0.244,2.617,0.519l-0.518,1.873c-0.411-0.199-1.143-0.488-2.146-0.488s-1.49,0.457-1.49,0.988
			c0,0.656,0.578,0.943,1.902,1.446c1.812,0.67,2.664,1.613,2.664,3.06c0,1.72-1.326,3.183-4.142,3.183
			c-1.172,0-2.328-0.306-2.907-0.624L142.98,40.704z"/>
		<path fill="#FFFFFF" d="M153.561,33.521v2.129h1.658v1.707h-1.658v2.693c0,0.897,0.213,1.309,0.914,1.309
			c0.287,0,0.517-0.029,0.685-0.061l0.015,1.75c-0.305,0.121-0.854,0.198-1.506,0.198c-0.747,0-1.371-0.261-1.734-0.64
			c-0.427-0.442-0.642-1.158-0.642-2.209v-3.041h-0.987V35.65h0.987v-1.613L153.561,33.521z"/>
		<path fill="#FFFFFF" d="M160.789,43.096l-0.137-0.748h-0.045c-0.488,0.596-1.25,0.913-2.133,0.913
			c-1.506,0-2.404-1.096-2.404-2.282c0-1.933,1.734-2.861,4.369-2.847v-0.106c0-0.395-0.213-0.957-1.354-0.957
			c-0.761,0-1.567,0.258-2.056,0.562l-0.426-1.492c0.518-0.289,1.537-0.654,2.892-0.654c2.481,0,3.272,1.461,3.272,3.211v2.589
			c0,0.716,0.029,1.399,0.105,1.812H160.789L160.789,43.096z M160.516,39.579c-1.218-0.017-2.162,0.272-2.162,1.171
			c0,0.596,0.396,0.884,0.914,0.884c0.578,0,1.051-0.381,1.203-0.854c0.029-0.119,0.045-0.256,0.045-0.394V39.579z"/>
		<path fill="#FFFFFF" d="M167.061,33.521v2.129h1.658v1.707h-1.658v2.693c0,0.897,0.213,1.309,0.914,1.309
			c0.287,0,0.518-0.029,0.685-0.061l0.015,1.75c-0.304,0.121-0.852,0.198-1.506,0.198c-0.746,0-1.37-0.261-1.734-0.64
			c-0.427-0.442-0.641-1.158-0.641-2.209v-3.041h-0.988V35.65h0.988v-1.613L167.061,33.521z"/>
		<path fill="#FFFFFF" d="M172.447,33.582c0,0.639-0.486,1.157-1.247,1.157c-0.729,0-1.218-0.521-1.203-1.157
			c-0.015-0.67,0.474-1.172,1.218-1.172C171.961,32.41,172.434,32.912,172.447,33.582z M170.059,43.096V35.65h2.313v7.443h-2.313
			V43.096z"/>
		<path fill="#FFFFFF" d="M181.58,39.289c0,2.725-1.934,3.972-3.926,3.972c-2.178,0-3.853-1.431-3.853-3.835
			c0-2.402,1.583-3.941,3.974-3.941C180.059,35.484,181.58,37.052,181.58,39.289z M176.191,39.364c0,1.278,0.533,2.237,1.522,2.237
			c0.897,0,1.476-0.897,1.476-2.237c0-1.109-0.426-2.237-1.476-2.237C176.604,37.127,176.191,38.27,176.191,39.364z"/>
		<path fill="#FFFFFF" d="M183.012,38.025c0-0.928-0.031-1.719-0.062-2.375h2.01l0.105,1.021h0.047
			c0.305-0.472,1.064-1.187,2.298-1.187c1.522,0,2.664,1.005,2.664,3.195v4.414h-2.313v-4.123c0-0.961-0.335-1.613-1.173-1.613
			c-0.639,0-1.021,0.438-1.171,0.865c-0.062,0.137-0.092,0.366-0.092,0.578v4.293h-2.312V38.025z"/>
		<path fill="#FFFFFF" d="M191.915,41.068c0.427,0.261,1.31,0.564,1.994,0.564c0.698,0,0.989-0.244,0.989-0.624
			c0-0.381-0.229-0.565-1.098-0.853c-1.537-0.521-2.13-1.355-2.115-2.237c0-1.386,1.188-2.437,3.029-2.437
			c0.867,0,1.643,0.199,2.1,0.427l-0.41,1.598c-0.334-0.183-0.975-0.426-1.613-0.426c-0.562,0-0.882,0.228-0.882,0.608
			c0,0.351,0.288,0.531,1.202,0.854c1.414,0.484,2.008,1.201,2.023,2.297c0,1.387-1.097,2.406-3.227,2.406
			c-0.975,0-1.844-0.214-2.405-0.52L191.915,41.068z"/>
	</g>
</g>
</svg>
